<svg width="62" height="26" viewBox="0 0 62 26" fill="none" xmlns="http://www.w3.org/2000/svg">
<path d="M5.52918 8.77384L1.09125 7.69415L5.43765 4.20737L5.52918 8.77384Z" fill="#544CAC"/>
<path d="M11.364 6.3457L6.50887 10.2394L6.35788 2.64814L11.364 6.3457Z" fill="#FF5C00"/>
<path d="M19.7026 16.3662L25.4138 17.7506L19.8253 22.2415L19.7026 16.3662Z" fill="#544CAC"/>
<path d="M4.99524 12.8802L18.7394 1.77618L19.2457 23.3264L4.99524 12.8802Z" fill="#544CAC"/>
<path d="M33.992 19L36.152 13.544H35.304L35.896 12.056H36.744L37.848 9.288H33.992V7.8H39.928L38.232 12.056H39.096L38.52 13.544H37.64L36.056 17.512H39.928V19H33.992ZM42.7139 19V7.8H44.2019V19H42.7139ZM46.31 19V7.8H51.11C51.4193 7.8 51.686 7.912 51.91 8.136C52.134 8.36 52.246 8.632 52.246 8.952V12.392C52.246 12.712 52.134 12.984 51.91 13.208C51.686 13.432 51.4193 13.544 51.11 13.544H50.774L52.246 19H50.774L49.286 13.544H47.798V19H46.31ZM47.798 12.056H50.198C50.3473 12.056 50.4807 12.0027 50.598 11.896C50.7153 11.7787 50.774 11.64 50.774 11.48V9.864C50.774 9.704 50.7153 9.57067 50.598 9.464C50.4807 9.34667 50.3473 9.288 50.198 9.288H47.798V12.056ZM55.1682 19C54.8696 19 54.6082 18.888 54.3842 18.664C54.1602 18.44 54.0482 18.1627 54.0482 17.832V8.968C54.0482 8.63733 54.1602 8.36 54.3842 8.136C54.6082 7.912 54.8696 7.8 55.1682 7.8H58.8003C59.1416 7.8 59.4189 7.912 59.6322 8.136C59.8562 8.36 59.9682 8.63733 59.9682 8.968V17.832C59.9682 18.1627 59.8562 18.44 59.6322 18.664C59.4189 18.888 59.1416 19 58.8003 19H55.1682ZM56.0802 17.528H57.8882C58.0696 17.528 58.2136 17.4693 58.3203 17.352C58.4376 17.2347 58.4962 17.0907 58.4962 16.92V9.88C58.4962 9.69867 58.4376 9.55467 58.3203 9.448C58.2136 9.33067 58.0696 9.272 57.8882 9.272H56.0802C55.9309 9.272 55.7976 9.33067 55.6802 9.448C55.5736 9.55467 55.5202 9.69867 55.5202 9.88V16.92C55.5202 17.0907 55.5736 17.2347 55.6802 17.352C55.7976 17.4693 55.9309 17.528 56.0802 17.528Z" fill="#272626"/>
</svg>
